<?xml version="1.0" encoding="UTF-8" standalone="no"?><svg xmlns="http://www.w3.org/2000/svg" xmlns:xlink="http://www.w3.org/1999/xlink" contentScriptType="application/ecmascript" contentStyleType="text/css" height="283px" preserveAspectRatio="none" style="width:172px;height:283px;" version="1.1" viewBox="0 0 172 283" width="172px" zoomAndPan="magnify"><defs><filter height="300%" id="f1eauodbq4d0sm" width="300%" x="-1" y="-1"><feGaussianBlur result="blurOut" stdDeviation="2.0"/><feColorMatrix in="blurOut" result="blurOut2" type="matrix" values="0 0 0 0 0 0 0 0 0 0 0 0 0 0 0 0 0 0 .4 0"/><feOffset dx="4.0" dy="4.0" in="blurOut2" result="blurOut3"/><feBlend in="SourceGraphic" in2="blurOut3" mode="normal"/></filter></defs><g><!--class Pet--><rect fill="#FEFECE" filter="url(#f1eauodbq4d0sm)" height="48" id="Pet" style="stroke: #A80036; stroke-width: 1.5;" width="53" x="51" y="8"/><ellipse cx="66" cy="24" fill="#ADD1B2" rx="11" ry="11" style="stroke: #A80036; stroke-width: 1.0;"/><path d="M68.9688,29.6406 Q68.3906,29.9375 67.75,30.0781 Q67.1094,30.2344 66.4063,30.2344 Q63.9063,30.2344 62.5781,28.5938 Q61.2656,26.9375 61.2656,23.8125 Q61.2656,20.6875 62.5781,19.0313 Q63.9063,17.375 66.4063,17.375 Q67.1094,17.375 67.75,17.5313 Q68.4063,17.6875 68.9688,17.9844 L68.9688,20.7031 Q68.3438,20.125 67.75,19.8594 Q67.1563,19.5781 66.5313,19.5781 Q65.1875,19.5781 64.5,20.6563 Q63.8125,21.7188 63.8125,23.8125 Q63.8125,25.9063 64.5,26.9844 Q65.1875,28.0469 66.5313,28.0469 Q67.1563,28.0469 67.75,27.7813 Q68.3438,27.5 68.9688,26.9219 L68.9688,29.6406 Z "/><text fill="#000000" font-family="sans-serif" font-size="12" lengthAdjust="spacingAndGlyphs" textLength="21" x="80" y="28.1543">Pet</text><line style="stroke: #A80036; stroke-width: 1.5;" x1="52" x2="103" y1="40" y2="40"/><line style="stroke: #A80036; stroke-width: 1.5;" x1="52" x2="103" y1="48" y2="48"/><!--class Cat--><rect fill="#FEFECE" filter="url(#f1eauodbq4d0sm)" height="48" id="Cat" style="stroke: #A80036; stroke-width: 1.5;" width="53" x="6" y="116"/><ellipse cx="21" cy="132" fill="#ADD1B2" rx="11" ry="11" style="stroke: #A80036; stroke-width: 1.0;"/><path d="M23.9688,137.6406 Q23.3906,137.9375 22.75,138.0781 Q22.1094,138.2344 21.4063,138.2344 Q18.9063,138.2344 17.5781,136.5938 Q16.2656,134.9375 16.2656,131.8125 Q16.2656,128.6875 17.5781,127.0313 Q18.9063,125.375 21.4063,125.375 Q22.1094,125.375 22.75,125.5313 Q23.4063,125.6875 23.9688,125.9844 L23.9688,128.7031 Q23.3438,128.125 22.75,127.8594 Q22.1563,127.5781 21.5313,127.5781 Q20.1875,127.5781 19.5,128.6563 Q18.8125,129.7188 18.8125,131.8125 Q18.8125,133.9063 19.5,134.9844 Q20.1875,136.0469 21.5313,136.0469 Q22.1563,136.0469 22.75,135.7813 Q23.3438,135.5 23.9688,134.9219 L23.9688,137.6406 Z "/><text fill="#000000" font-family="sans-serif" font-size="12" lengthAdjust="spacingAndGlyphs" textLength="21" x="35" y="136.1543">Cat</text><line style="stroke: #A80036; stroke-width: 1.5;" x1="7" x2="58" y1="148" y2="148"/><line style="stroke: #A80036; stroke-width: 1.5;" x1="7" x2="58" y1="156" y2="156"/><!--class Dog--><rect fill="#FEFECE" filter="url(#f1eauodbq4d0sm)" height="48" id="Dog" style="stroke: #A80036; stroke-width: 1.5;" width="57" x="94" y="116"/><ellipse cx="109" cy="132" fill="#ADD1B2" rx="11" ry="11" style="stroke: #A80036; stroke-width: 1.0;"/><path d="M111.9688,137.6406 Q111.3906,137.9375 110.75,138.0781 Q110.1094,138.2344 109.4063,138.2344 Q106.9063,138.2344 105.5781,136.5938 Q104.2656,134.9375 104.2656,131.8125 Q104.2656,128.6875 105.5781,127.0313 Q106.9063,125.375 109.4063,125.375 Q110.1094,125.375 110.75,125.5313 Q111.4063,125.6875 111.9688,125.9844 L111.9688,128.7031 Q111.3438,128.125 110.75,127.8594 Q110.1563,127.5781 109.5313,127.5781 Q108.1875,127.5781 107.5,128.6563 Q106.8125,129.7188 106.8125,131.8125 Q106.8125,133.9063 107.5,134.9844 Q108.1875,136.0469 109.5313,136.0469 Q110.1563,136.0469 110.75,135.7813 Q111.3438,135.5 111.9688,134.9219 L111.9688,137.6406 Z "/><text fill="#000000" font-family="sans-serif" font-size="12" lengthAdjust="spacingAndGlyphs" textLength="25" x="123" y="136.1543">Dog</text><line style="stroke: #A80036; stroke-width: 1.5;" x1="95" x2="150" y1="148" y2="148"/><line style="stroke: #A80036; stroke-width: 1.5;" x1="95" x2="150" y1="156" y2="156"/><!--class Bulldog--><rect fill="#FEFECE" filter="url(#f1eauodbq4d0sm)" height="48" id="Bulldog" style="stroke: #A80036; stroke-width: 1.5;" width="78" x="83.5" y="224"/><ellipse cx="98.5" cy="240" fill="#ADD1B2" rx="11" ry="11" style="stroke: #A80036; stroke-width: 1.0;"/><path d="M101.4688,245.6406 Q100.8906,245.9375 100.25,246.0781 Q99.6094,246.2344 98.9063,246.2344 Q96.4063,246.2344 95.0781,244.5938 Q93.7656,242.9375 93.7656,239.8125 Q93.7656,236.6875 95.0781,235.0313 Q96.4063,233.375 98.9063,233.375 Q99.6094,233.375 100.25,233.5313 Q100.9063,233.6875 101.4688,233.9844 L101.4688,236.7031 Q100.8438,236.125 100.25,235.8594 Q99.6563,235.5781 99.0313,235.5781 Q97.6875,235.5781 97,236.6563 Q96.3125,237.7188 96.3125,239.8125 Q96.3125,241.9063 97,242.9844 Q97.6875,244.0469 99.0313,244.0469 Q99.6563,244.0469 100.25,243.7813 Q100.8438,243.5 101.4688,242.9219 L101.4688,245.6406 Z "/><text fill="#000000" font-family="sans-serif" font-size="12" lengthAdjust="spacingAndGlyphs" textLength="46" x="112.5" y="244.1543">Bulldog</text><line style="stroke: #A80036; stroke-width: 1.5;" x1="84.5" x2="160.5" y1="256" y2="256"/><line style="stroke: #A80036; stroke-width: 1.5;" x1="84.5" x2="160.5" y1="264" y2="264"/><!--link Pet to Cat--><path d="M59.6478,74.8452 C53.8385,88.7875 47.597,103.7671 42.5652,115.8436 " fill="none" id="Pet-Cat" style="stroke: #A80036; stroke-width: 1.0;"/><polygon fill="none" points="53.2472,72.0065,67.4011,56.2373,66.1703,77.3912,53.2472,72.0065" style="stroke: #A80036; stroke-width: 1.0;"/><!--link Pet to Dog--><path d="M95.3522,74.8452 C101.1615,88.7875 107.403,103.7671 112.4348,115.8436 " fill="none" id="Pet-Dog" style="stroke: #A80036; stroke-width: 1.0;"/><polygon fill="none" points="88.8297,77.3912,87.5989,56.2373,101.7528,72.0065,88.8297,77.3912" style="stroke: #A80036; stroke-width: 1.0;"/><!--link Dog to Bulldog--><path d="M122.5,184.2911 C122.5,197.8171 122.5,212.1835 122.5,223.8436 " fill="none" id="Dog-Bulldog" style="stroke: #A80036; stroke-width: 1.0;"/><polygon fill="none" points="115.5001,184.2373,122.5,164.2373,129.5001,184.2373,115.5001,184.2373" style="stroke: #A80036; stroke-width: 1.0;"/><!--
@startuml
Pet ^- - Cat
Pet ^- - Dog
Dog ^- - Bulldog
@enduml

PlantUML version 1.2017.15(Mon Jul 03 11:45:34 CDT 2017)
(GPL source distribution)
Java Runtime: OpenJDK Runtime Environment
JVM: OpenJDK 64-Bit Server VM
Java Version: 11.0.6+10-post-Ubuntu-1ubuntu118.04.1
Operating System: Linux
OS Version: 5.3.0-40-generic
Default Encoding: UTF-8
Language: en
Country: US
--></g></svg>