<?xml version="1.0" encoding="UTF-8" standalone="no"?><svg xmlns="http://www.w3.org/2000/svg" xmlns:xlink="http://www.w3.org/1999/xlink" contentScriptType="application/ecmascript" contentStyleType="text/css" height="335px" preserveAspectRatio="none" style="width:172px;height:335px;" version="1.1" viewBox="0 0 172 335" width="172px" zoomAndPan="magnify"><defs><filter height="300%" id="fu9yjdh3gxfjx" width="300%" x="-1" y="-1"><feGaussianBlur result="blurOut" stdDeviation="2.0"/><feColorMatrix in="blurOut" result="blurOut2" type="matrix" values="0 0 0 0 0 0 0 0 0 0 0 0 0 0 0 0 0 0 .4 0"/><feOffset dx="4.0" dy="4.0" in="blurOut2" result="blurOut3"/><feBlend in="SourceGraphic" in2="blurOut3" mode="normal"/></filter></defs><g><!--class Pet--><rect fill="#FEFECE" filter="url(#fu9yjdh3gxfjx)" height="73.6094" id="Pet" style="stroke: #A80036; stroke-width: 1.5;" width="53" x="51" y="8"/><ellipse cx="66" cy="24" fill="#ADD1B2" rx="11" ry="11" style="stroke: #A80036; stroke-width: 1.0;"/><path d="M68.9688,29.6406 Q68.3906,29.9375 67.75,30.0781 Q67.1094,30.2344 66.4063,30.2344 Q63.9063,30.2344 62.5781,28.5938 Q61.2656,26.9375 61.2656,23.8125 Q61.2656,20.6875 62.5781,19.0313 Q63.9063,17.375 66.4063,17.375 Q67.1094,17.375 67.75,17.5313 Q68.4063,17.6875 68.9688,17.9844 L68.9688,20.7031 Q68.3438,20.125 67.75,19.8594 Q67.1563,19.5781 66.5313,19.5781 Q65.1875,19.5781 64.5,20.6563 Q63.8125,21.7188 63.8125,23.8125 Q63.8125,25.9063 64.5,26.9844 Q65.1875,28.0469 66.5313,28.0469 Q67.1563,28.0469 67.75,27.7813 Q68.3438,27.5 68.9688,26.9219 L68.9688,29.6406 Z "/><text fill="#000000" font-family="sans-serif" font-size="12" lengthAdjust="spacingAndGlyphs" textLength="21" x="80" y="28.1543">Pet</text><line style="stroke: #A80036; stroke-width: 1.5;" x1="52" x2="103" y1="40" y2="40"/><line style="stroke: #A80036; stroke-width: 1.5;" x1="52" x2="103" y1="48" y2="48"/><text fill="#000000" font-family="sans-serif" font-size="11" lengthAdjust="spacingAndGlyphs" textLength="19" x="57" y="62.2104">run</text><text fill="#000000" font-family="sans-serif" font-size="11" lengthAdjust="spacingAndGlyphs" textLength="28" x="57" y="75.0151">jump</text><!--class Cat--><rect fill="#FEFECE" filter="url(#fu9yjdh3gxfjx)" height="60.8047" id="Cat" style="stroke: #A80036; stroke-width: 1.5;" width="53" x="6" y="148.5"/><ellipse cx="21" cy="164.5" fill="#ADD1B2" rx="11" ry="11" style="stroke: #A80036; stroke-width: 1.0;"/><path d="M23.9688,170.1406 Q23.3906,170.4375 22.75,170.5781 Q22.1094,170.7344 21.4063,170.7344 Q18.9063,170.7344 17.5781,169.0938 Q16.2656,167.4375 16.2656,164.3125 Q16.2656,161.1875 17.5781,159.5313 Q18.9063,157.875 21.4063,157.875 Q22.1094,157.875 22.75,158.0313 Q23.4063,158.1875 23.9688,158.4844 L23.9688,161.2031 Q23.3438,160.625 22.75,160.3594 Q22.1563,160.0781 21.5313,160.0781 Q20.1875,160.0781 19.5,161.1563 Q18.8125,162.2188 18.8125,164.3125 Q18.8125,166.4063 19.5,167.4844 Q20.1875,168.5469 21.5313,168.5469 Q22.1563,168.5469 22.75,168.2813 Q23.3438,168 23.9688,167.4219 L23.9688,170.1406 Z "/><text fill="#000000" font-family="sans-serif" font-size="12" lengthAdjust="spacingAndGlyphs" textLength="21" x="35" y="168.6543">Cat</text><line style="stroke: #A80036; stroke-width: 1.5;" x1="7" x2="58" y1="180.5" y2="180.5"/><line style="stroke: #A80036; stroke-width: 1.5;" x1="7" x2="58" y1="188.5" y2="188.5"/><text fill="#000000" font-family="sans-serif" font-size="11" lengthAdjust="spacingAndGlyphs" textLength="34" x="12" y="202.7104">speak</text><!--class Dog--><rect fill="#FEFECE" filter="url(#fu9yjdh3gxfjx)" height="73.6094" id="Dog" style="stroke: #A80036; stroke-width: 1.5;" width="57" x="94" y="142"/><ellipse cx="109" cy="158" fill="#ADD1B2" rx="11" ry="11" style="stroke: #A80036; stroke-width: 1.0;"/><path d="M111.9688,163.6406 Q111.3906,163.9375 110.75,164.0781 Q110.1094,164.2344 109.4063,164.2344 Q106.9063,164.2344 105.5781,162.5938 Q104.2656,160.9375 104.2656,157.8125 Q104.2656,154.6875 105.5781,153.0313 Q106.9063,151.375 109.4063,151.375 Q110.1094,151.375 110.75,151.5313 Q111.4063,151.6875 111.9688,151.9844 L111.9688,154.7031 Q111.3438,154.125 110.75,153.8594 Q110.1563,153.5781 109.5313,153.5781 Q108.1875,153.5781 107.5,154.6563 Q106.8125,155.7188 106.8125,157.8125 Q106.8125,159.9063 107.5,160.9844 Q108.1875,162.0469 109.5313,162.0469 Q110.1563,162.0469 110.75,161.7813 Q111.3438,161.5 111.9688,160.9219 L111.9688,163.6406 Z "/><text fill="#000000" font-family="sans-serif" font-size="12" lengthAdjust="spacingAndGlyphs" textLength="25" x="123" y="162.1543">Dog</text><line style="stroke: #A80036; stroke-width: 1.5;" x1="95" x2="150" y1="174" y2="174"/><line style="stroke: #A80036; stroke-width: 1.5;" x1="95" x2="150" y1="182" y2="182"/><text fill="#000000" font-family="sans-serif" font-size="11" lengthAdjust="spacingAndGlyphs" textLength="30" x="100" y="196.2104">swim</text><text fill="#000000" font-family="sans-serif" font-size="11" lengthAdjust="spacingAndGlyphs" textLength="28" x="100" y="209.0151">fetch</text><!--class Bulldog--><rect fill="#FEFECE" filter="url(#fu9yjdh3gxfjx)" height="48" id="Bulldog" style="stroke: #A80036; stroke-width: 1.5;" width="78" x="83.5" y="276"/><ellipse cx="98.5" cy="292" fill="#ADD1B2" rx="11" ry="11" style="stroke: #A80036; stroke-width: 1.0;"/><path d="M101.4688,297.6406 Q100.8906,297.9375 100.25,298.0781 Q99.6094,298.2344 98.9063,298.2344 Q96.4063,298.2344 95.0781,296.5938 Q93.7656,294.9375 93.7656,291.8125 Q93.7656,288.6875 95.0781,287.0313 Q96.4063,285.375 98.9063,285.375 Q99.6094,285.375 100.25,285.5313 Q100.9063,285.6875 101.4688,285.9844 L101.4688,288.7031 Q100.8438,288.125 100.25,287.8594 Q99.6563,287.5781 99.0313,287.5781 Q97.6875,287.5781 97,288.6563 Q96.3125,289.7188 96.3125,291.8125 Q96.3125,293.9063 97,294.9844 Q97.6875,296.0469 99.0313,296.0469 Q99.6563,296.0469 100.25,295.7813 Q100.8438,295.5 101.4688,294.9219 L101.4688,297.6406 Z "/><text fill="#000000" font-family="sans-serif" font-size="12" lengthAdjust="spacingAndGlyphs" textLength="46" x="112.5" y="296.1543">Bulldog</text><line style="stroke: #A80036; stroke-width: 1.5;" x1="84.5" x2="160.5" y1="308" y2="308"/><line style="stroke: #A80036; stroke-width: 1.5;" x1="84.5" x2="160.5" y1="316" y2="316"/><!--link Pet to Cat--><path d="M58.5178,101.5248 C53.1452,117.5232 47.4982,134.3386 42.8433,148.1999 " fill="none" id="Pet-Cat" style="stroke: #A80036; stroke-width: 1.0;"/><polygon fill="none" points="51.9621,99.0575,64.965,82.3265,65.2338,103.5144,51.9621,99.0575" style="stroke: #A80036; stroke-width: 1.0;"/><!--link Pet to Dog--><path d="M96.5021,101.5842 C101.0748,115.2004 105.8449,129.4049 110.0322,141.8737 " fill="none" id="Pet-Dog" style="stroke: #A80036; stroke-width: 1.0;"/><polygon fill="none" points="89.7662,103.5144,90.035,82.3265,103.0379,99.0575,89.7662,103.5144" style="stroke: #A80036; stroke-width: 1.0;"/><!--link Dog to Bulldog--><path d="M122.5,236.2968 C122.5,250.3031 122.5,264.5389 122.5,275.9903 " fill="none" id="Dog-Bulldog" style="stroke: #A80036; stroke-width: 1.0;"/><polygon fill="none" points="115.5001,236.2913,122.5,216.2913,129.5001,236.2913,115.5001,236.2913" style="stroke: #A80036; stroke-width: 1.0;"/><!--
@startuml
Pet ^- - Cat
Pet ^- - Dog
Dog ^- - Bulldog

class Pet {
  {method} run
  {method} jump
}

class Dog {
  {method} swim
  {method} fetch
}

class Cat {
  {method} speak
}
@enduml

PlantUML version 1.2017.15(Mon Jul 03 11:45:34 CDT 2017)
(GPL source distribution)
Java Runtime: OpenJDK Runtime Environment
JVM: OpenJDK 64-Bit Server VM
Java Version: 11.0.6+10-post-Ubuntu-1ubuntu118.04.1
Operating System: Linux
OS Version: 5.3.0-40-generic
Default Encoding: UTF-8
Language: en
Country: US
--></g></svg>